
<svg width="512" height="512" viewBox="0 0 512 512" fill="none" xmlns="http://www.w3.org/2000/svg" xmlns:xlink="http://www.w3.org/1999/xlink" class=""><rect id="_r_o_" width="512" height="512" x="0" y="0" rx="12" fill="url(#_r_p_)" stroke="#FFFFFF" stroke-width="0" stroke-opacity="100%" paint-order="stroke"></rect><clipPath id="clip"><use xlink:href="#_r_o_"></use></clipPath><defs><linearGradient id="_r_p_" gradientUnits="userSpaceOnUse" gradientTransform="rotate(180)" style="transform-origin: center center;"><stop stop-color="#FC466B"></stop><stop offset="1" stop-color="#3F5EFB"></stop></linearGradient><radialGradient id="_r_q_" cx="0" cy="0" r="1" gradientUnits="userSpaceOnUse" gradientTransform="translate(256) rotate(90) scale(512)"><stop stop-color="white"></stop><stop offset="1" stop-color="white" stop-opacity="0"></stop></radialGradient></defs><svg xmlns="http://www.w3.org/2000/svg" width="352" height="352" viewBox="0 0 24 24" x="80" y="80" alignment-baseline="middle" style="color: rgb(255, 255, 255); width: 352px; height: 352px;"><g fill="none" fill-rule="evenodd"><path d="m12.593 23.258l-.011.002l-.071.035l-.02.004l-.014-.004l-.071-.035q-.016-.005-.024.005l-.004.01l-.017.428l.005.02l.01.013l.104.074l.015.004l.012-.004l.104-.074l.012-.016l.004-.017l-.017-.427q-.004-.016-.017-.018m.265-.113l-.013.002l-.185.093l-.01.01l-.003.011l.018.43l.005.012l.008.007l.201.093q.019.005.029-.008l.004-.014l-.034-.614q-.005-.018-.02-.022m-.715.002a.02.02 0 0 0-.027.006l-.006.014l-.034.614q.001.018.017.024l.015-.002l.201-.093l.01-.008l.004-.011l.017-.43l-.003-.012l-.01-.01z"></path><path fill="currentColor" d="M9 2a4 4 0 0 1 3 1.354A4 4 0 0 1 15 2h.5A1.5 1.5 0 0 1 17 3.5V4c0 .729-.195 1.412-.535 2H19a2 2 0 0 1 2 2v3a2 2 0 0 1-1 1.732V18a3 3 0 0 1-3 3H7a3 3 0 0 1-3-3v-5.268A2 2 0 0 1 3 11V8a2 2 0 0 1 2-2h2.535A4 4 0 0 1 7 4v-.5A1.5 1.5 0 0 1 8.5 2zm9 11h-5v6h4l.117-.007a1 1 0 0 0 .876-.876L18 18zm-7 0H6v5a1 1 0 0 0 .883.993L7 19h4zm8-5h-6v3h6zm-8 0H5v3h6zM9 4a2 2 0 0 0 2 2a2 2 0 0 0-2-2m6 0a2 2 0 0 0-2 2a2 2 0 0 0 2-2"></path></g></svg></svg>